# xmcd
#
# Track frame offsets:
#	150
#	8325
#	21110
#	31331
#	42012
#	55101
#	63495
#	73294
#	84730
#	93904
#	100431
#	108613
#	117409
#	127921
#	133529
#
# Disc length: 1902 seconds
#
# Revision: 0
# Processed by: cddbd v1.4PL0 Copyright (c) Steve Scherf et al.
# Submitted via: audiograbber 1.81.03
#
DISCID=c4076c0f
DTITLE=Chet Atkins - Christmas with Chet Atkins
DYEAR=1963
DGENRE=Country
TTITLE0=Jingle Bell Rock
TTITLE1=Winter Wonderland
TTITLE2=Jolly Old St. Nicholas
TTITLE3=White Christmas
TTITLE4=Blue Christmas
TTITLE5=Jingle Bells
TTITLE6=Silver Bells
TTITLE7=Little Drummer Boy
TTITLE8=The Conventry Carol
TTITLE9=God Rest ye Merry Gentlemen
TTITLE10=The First Noel
TTITLE11=Hark! The Herald angels Sing
TTITLE12=O' Come All ye Faithful
TTITLE13=Deck the Halls
TTITLE14=Silent Night
EXTD=
EXTT0=
EXTT1=
EXTT2=
EXTT3=
EXTT4=
EXTT5=
EXTT6=
EXTT7=
EXTT8=
EXTT9=
EXTT10=
EXTT11=
EXTT12=
EXTT13=
EXTT14=
PLAYORDER=
